<?xml version="1.0" standalone="yes"?>
<svg xmlns="http://www.w3.org/2000/svg" width="512" height="512">
<path style="fill:#fefefe; stroke:none;" d="M0 0L0 512L512 512L512 0L0 0z"/>
<path style="fill:#a7a2aa; stroke:none;" d="M42 15L42 16L470 16C458.94 11.8668 441.804 15 430 15L342 15L42 15z"/>
<path style="fill:#837c87; stroke:none;" d="M38.6667 16.3333L39.3333 16.6667L38.6667 16.3333z"/>
<path style="fill:#44394a; stroke:none;" d="M16 96L496 96C496 73.3031 504.441 32.9478 481 19.5881C471.608 14.2351 459.371 16 449 16L382 16L135 16L63 16C52.336 16 39.3912 14.0297 30.0001 20.1564C7.87484 34.5908 16 73.1997 16 96z"/>
<path style="fill:#b3afb6; stroke:none;" d="M472.667 16.3333L473.333 16.6667L472.667 16.3333z"/>
<path style="fill:#837c87; stroke:none;" d="M16.3333 38.6667L16.6667 39.3333L16.3333 38.6667z"/>
<path style="fill:#857e89; stroke:none;" d="M495.333 38.6667L495.667 39.3333L495.333 38.6667z"/>
<path style="fill:#f0a696; stroke:none;" d="M87.0006 40.7301C76.6463 43.6995 70.1237 65.3446 85 61.1584C95.7504 58.1333 102.487 36.2888 87.0006 40.7301M153 41C144.543 39.4698 122.839 49.2907 133.845 60.152C144.537 70.7045 152.986 48.0494 153 41M200 40.6317C189.673 43.219 181.831 64.8682 197 61.3998C208.002 58.8842 216.112 36.5949 200 40.6317z"/>
<path style="fill:#e08c7e; stroke:none;" d="M96 41C98.1196 53.6702 88.6702 63.1195 76 61C90.4149 87.2141 122.782 53.3761 96 41M153 41C152.929 52.9915 146.154 62.9851 133 61C140.942 82.2233 173.054 65.168 160.271 47.0313C158.339 44.2903 155.877 42.5823 153 41M209 41C211.031 53.2461 201.201 63.041 189 61C201.263 87.327 235.656 54.5653 209 41z"/>
<path style="fill:#a39ea6; stroke:none;" d="M15 42L15 96L16 96C16 80.3615 20.4594 56.6084 15 42M496 42L496 96L497 96C497 80.3614 501.459 56.6086 496 42z"/>
<path style="fill:#996e70; stroke:none;" d="M75 53L75 58L76 58L75 53z"/>
<path style="fill:#855f64; stroke:none;" d="M89 71L89 72L93 72L89 71z"/>
<path style="fill:#835e63; stroke:none;" d="M201 71L201 72L206 72L201 71z"/>
<path style="fill:#d7e6ef; stroke:none;" d="M15 96L15 376L15 447C15 459.002 13.569 472.581 20.8548 482.999C30.5108 496.807 44.8297 497 60 497L116 497L389 497L453 497C467.956 497 482.898 496.057 491.811 482C498.687 471.156 497 457.2 497 445L497 373L497 96L15 96z"/>
<path style="fill:#a5b4ec; stroke:none;" d="M62 142L62 143L450 143L414 142L334 142L62 142z"/>
<path style="fill:#5f6fe7; stroke:none;" d="M62 143L62 341C75.2364 331.364 83.1093 316.349 90.2483 302C104.845 272.663 113.588 239.106 134.028 213C152.672 189.187 182.296 183.89 203.405 208.027C209.527 215.027 215.001 222.715 219.241 231C226.428 245.042 233.253 259.3 239 274L241 274C244.005 266.919 247.768 260.047 252.558 254C266.514 236.379 286.576 234.434 301.664 252.003C317.864 270.866 323.019 296.702 335 318C339.127 325.336 343.518 335.265 351.197 339.588C358.327 343.602 371.992 341 380 341L450 341L450 143L62 143z"/>
<path style="fill:#d7e6ef; stroke:none;" d="M371 176.558C360.019 178.883 349.942 188.173 346.837 199C341.87 216.321 350.324 230.047 369 226.314C379.276 224.26 388.402 218.711 393.047 209C402.324 189.603 393.922 171.706 371 176.558z"/>
<path style="fill:#a4c0d8; stroke:none;" d="M394 179C395.063 184.747 397.473 190.024 396.664 196C393.287 220.932 370.908 230.015 349 224C368.471 266.405 433.164 228.181 406.745 190.003C403.42 185.198 399.151 181.668 394 179z"/>
<path style="fill:#a99676; stroke:none;" d="M167 191L167 192L175 192L167 191z"/>
<path style="fill:#f4b601; stroke:none;" d="M63 341L352 341L352 340L335 317C289.741 327.209 258.421 277.383 278 239C255.194 239.359 251.851 260.565 239 274L260 318C245.946 318 232.493 318.54 219 313.902C182.714 301.43 161.197 265.541 164.118 228C165.173 214.447 173.159 204.124 178 192C122.976 192 110.647 259.757 90.7483 300C83.0509 315.567 73.0542 327.188 63 341z"/>
<path style="fill:#99938f; stroke:none;" d="M178.667 192.333L179.333 192.667L178.667 192.333z"/>
<path style="fill:#f8ce01; stroke:none;" d="M260 318C253.829 303.457 246.085 289.508 239.737 275C230.979 254.982 223.438 233.87 210.557 216C205.002 208.292 190.83 190.091 179.126 193.843C173.797 195.551 170.957 204.344 169.02 209C162.257 225.261 161.759 245.351 167.515 262C177.052 289.587 199.066 310.626 228 316.694C238.431 318.882 249.401 318 260 318z"/>
<path style="fill:#95a4eb; stroke:none;" d="M345 205L345 214L346 214L345 205z"/>
<path style="fill:#f8ce01; stroke:none;" d="M334 318C332.426 310.077 328.032 302.412 324.853 295C318.445 280.057 312.455 263.457 301.664 251.011C297.371 246.058 285.68 236.169 278.286 240.21C268.526 245.544 270.229 267.166 272.011 276C278.348 307.426 305.306 318 334 318z"/>
<path style="fill:#989390; stroke:none;" d="M282.667 239.333L283.333 239.667L282.667 239.333z"/>
<path style="fill:#d4c480; stroke:none;" d="M62 341L62 342L204 342C191.927 337.488 172.897 341 160 341L62 341z"/>
<path style="fill:#e3c345; stroke:none;" d="M204 341L204 342L280 342L255 341L204 341z"/>
<path style="fill:#d4c480; stroke:none;" d="M280 341L280 342L352 342L329 341L280 341z"/>
<path style="fill:#b8c7ed; stroke:none;" d="M352 341L352 342L450 342L419 341L352 341z"/>
<path style="fill:#2c92bf; stroke:none;" d="M86 388.558C74.9888 390.889 65.8508 400.266 62.8346 411C58.4805 426.495 67.2775 436.755 83 433.442C93.1176 431.309 101.88 424.625 105.871 415C112.92 397.999 104.73 384.594 86 388.558z"/>
<path style="fill:#ee6a51; stroke:none;" d="M299 388.558C274.193 393.81 262.27 439.935 296 433.179C306.494 431.077 315.105 424.151 318.874 414C325.045 397.378 317.427 384.658 299 388.558z"/>
<path style="fill:#1f81a3; stroke:none;" d="M106 391C112.393 418.332 92.4428 438.419 65 432C67.2763 436.958 70.5359 441.082 75.0008 444.301C111.488 470.602 146.7 405.579 106 391z"/>
<path style="fill:#e1533b; stroke:none;" d="M319 391C325.322 418.029 305.057 438.329 278 432C292.808 473.34 358.758 435.837 330.55 400.003C327.414 396.02 323.659 392.934 319 391z"/>
<path style="fill:#a4c0d8; stroke:none;" d="M150.157 397.15C144.369 400.473 146.046 408.638 152.064 410.479C158.54 412.46 167.268 411 174 411L219 411C225.221 411 236.484 413.134 241.702 409.155C247.206 404.959 244.228 397.332 237.996 396.216C217.988 392.632 194.349 396 174 396C167.452 396 155.97 393.811 150.157 397.15M363.101 397.15C357.177 400.468 358.946 408.654 365.031 410.479C371.55 412.435 380.234 411 387 411L432 411C438.145 411 449.479 413.152 454.594 409.155C460 404.931 457.148 397.551 450.989 396.298C431.299 392.292 407.117 396 387 396C380.378 396 369.012 393.838 363.101 397.15z"/>
<path style="fill:#dfa099; stroke:none;" d="M336.333 423.667L336.667 424.333L336.333 423.667z"/>
<path style="fill:#a4c0d8; stroke:none;" d="M151.074 427.845C144.528 430.609 145.516 439.477 152.064 441.479C163.504 444.978 180.045 442 192 442C196.469 442 202.856 443.114 206.899 440.85C212.819 437.535 211.574 428.671 204.969 427.298C193.246 424.86 178.973 427 167 427C162.14 427 155.642 425.915 151.074 427.845M363.101 428.15C357.248 431.429 358.862 439.855 365.031 441.588C376.959 444.937 393.607 442 406 442C410.501 442 416.879 443.07 420.702 440.155C426.206 435.959 423.228 428.332 416.996 427.216C405.063 425.078 391.126 427 379 427C374.286 427 367.36 425.764 363.101 428.15z"/>
</svg>
